<svg xmlns="http://www.w3.org/2000/svg" width="268.0322"
     height="268.0322" viewBox="0 0 268.0322 268.0322">
    <defs>
        <style>
            .cls-1{fill:none;}.cls-2{fill:#fff;}.cls-3{fill:#010101;}.cls-4{fill:#50b2ce;}.cls-5{fill:#6ab345;}.cls-6{fill:#74cbf1;}
        </style>
    </defs>
    <title>COG-Logo-White</title>
    <g id="Layer_2" data-name="Layer 2">
        <g id="Layer_1-2" data-name="Layer 1">
            <rect id="SVGID" class="cls-1" width="268.0322"
                  height="268.0322"/>
            <path class="cls-3"
                  d="M146.7746,20.3362a118.8863,118.8863,0,1,0,118.894,118.8919A118.8836,118.8836,0,0,0,146.7746,20.3362"/>
            <path class="cls-4"
                  d="M156.0507,207.3126c0,5.6471-2.4161,12.0847-9.2545,12.0847-6.8451,0-8.8737-6.4376-8.8737-12.0847V190.2155A220.7522,220.7522,0,0,1,86.76,157.54v47.7621c0,34.6508,27.4,51.9729,60.036,51.9729,31.6269,0,59.3791-16.6741,60.3923-50.0467-16.1063-.3451-33.5463-3.61-51.1378-9.7109Z"/>
            <path class="cls-4"
                  d="M188.2707,165.4835H156.0515v.0245c7.6757,4.0794,15.1,6.3285,21.907,6.3218,7.4976,0,10.359-2.5207,10.3122-6.3463"/>
            <path class="cls-4"
                  d="M114.9333,102.5113c-20.99.0223-5.852,20.5175,8.4038,36.2073a161.8681,161.8681,0,0,0,14.5853,14.2023v-43.15c-1.1957-.7148-2.4026-1.3739-3.63-1.9929q-10.0806-5.2909-19.36-5.2664"/>
            <path class="cls-4"
                  d="M137.9234,71.114c0-5.6292,2.0263-12.0914,8.8737-12.0914,6.8385,0,9.2545,6.4621,9.2545,12.0914V84.0984a190.4431,190.4431,0,0,1,30.32,17.7874h20.8649V73.136c0-34.6442-28.1954-51.964-60.4391-51.964-30.6872,0-56.7471,15.318-59.74,45.9517a171.43,171.43,0,0,1,50.8662,9.6308Z"/>
            <path class="cls-5"
                  d="M238.3168,151.9713l-56.4977.0847c3.7877,5.0392,6.4042,9.8156,6.451,13.4274h18.9677v39.8191c0,.6613-.0289,1.2871-.049,1.9261,1,.0268,1.984.0312,2.9839.0312,19.6468-.0312,34.4927-3.8523,40.672-12.4833,6.1993-8.8715,3.2378-22.8066-12.5278-42.8053"/>
            <path class="cls-5"
                  d="M87.0566,67.1236c-1.4653-.0423-2.9037-.06-4.3445-.06-46.6932.0846-56.589,26.3583-15.5585,71.4816A213.9053,213.9053,0,0,0,86.76,157.5395V73.1359c0-2.0731.1069-4.0572.2962-6.0123"/>
            <path class="cls-5"
                  d="M156.0507,84.0974a184.9032,184.9032,0,0,0-18.1282-7.3438V109.77a68.33,68.33,0,0,1,14.7212,11.6571l56.7738-.0824a194.7228,194.7228,0,0,0-23.047-19.46h-30.32Z"/>
            <path class="cls-5"
                  d="M156.0507,197.5161v-32.01a103.0791,103.0791,0,0,1-18.1282-12.5857v37.294q9.0585,4.1419,18.1282,7.3016"/>
            <path class="cls-6"
                  d="M137.9234,152.92a161.2788,161.2788,0,0,1-14.5876-14.2023c-14.2536-15.6876-29.3934-36.1828-8.4016-36.2073q9.2789-.02,19.3573,5.2686c1.2292.619,2.4338,1.2781,3.6319,1.9907V76.7531a171.494,171.494,0,0,0-50.8662-9.6286c-.1893,1.9551-.2984,3.9392-.2984,6.0123V157.54a220.7166,220.7166,0,0,0,51.1646,32.6757Z"/>
            <path class="cls-6"
                  d="M156.0507,101.8858h30.32a190.3442,190.3442,0,0,0-30.32-17.7874Z"/>
            <path class="cls-6"
                  d="M207.2373,165.4835H188.2718c.0446,3.8256-2.8146,6.3463-10.3121,6.3463-6.8073.0067-14.2335-2.2423-21.9092-6.3218v32.0076c17.5915,6.1036,35.0316,9.3658,51.1378,9.7132.02-.6391.049-1.2648.049-1.9261Z"/>
        </g>
    </g>
</svg>